<mxfile host="app.diagrams.net" modified="2020-10-23T20:37:35.147Z" agent="5.0 (X11; Linux x86_64) AppleWebKit/537.36 (KHTML, like Gecko) Chrome/86.0.4240.111 Safari/537.36" etag="aCZiPmmTtoaN9iNv0Tl0" compressed="false" version="13.8.1" type="device">
  <diagram id="yAwcKAUiTHlVPYSwxqh8" name="Page-1">
    <mxGraphModel dx="1527" dy="1362" grid="1" gridSize="10" guides="1" tooltips="1" connect="1" arrows="1" fold="1" page="0" pageScale="1" pageWidth="850" pageHeight="1100" math="0" shadow="0">
      <root>
        <mxCell id="0" />
        <mxCell id="1" parent="0" />
        <mxCell id="aPKXd2xIz4nXnnE8rZUF-1" value="PlotOfLand" style="rounded=0;whiteSpace=wrap;html=1;" parent="1" vertex="1">
          <mxGeometry x="710" y="-132.5" width="120" height="60" as="geometry" />
        </mxCell>
        <mxCell id="aPKXd2xIz4nXnnE8rZUF-2" value="works on / employed by" style="rhombus;whiteSpace=wrap;html=1;" parent="1" vertex="1">
          <mxGeometry x="430" y="-80" width="90" height="92.5" as="geometry" />
        </mxCell>
        <mxCell id="aPKXd2xIz4nXnnE8rZUF-4" value="Peasant" style="rounded=0;whiteSpace=wrap;html=1;" parent="1" vertex="1">
          <mxGeometry x="-120" y="225" width="120" height="60" as="geometry" />
        </mxCell>
        <mxCell id="4fpd6pDYD6I8LovXb1lp-1" value="Authority" style="rounded=0;whiteSpace=wrap;html=1;" parent="1" vertex="1">
          <mxGeometry x="574.98" y="80" width="120" height="60" as="geometry" />
        </mxCell>
        <mxCell id="4fpd6pDYD6I8LovXb1lp-6" value="owns" style="rhombus;whiteSpace=wrap;html=1;" parent="1" vertex="1">
          <mxGeometry x="730" y="10" width="80" height="80" as="geometry" />
        </mxCell>
        <mxCell id="4fpd6pDYD6I8LovXb1lp-11" value="pays tribute" style="rhombus;whiteSpace=wrap;html=1;" parent="1" vertex="1">
          <mxGeometry x="290" y="70" width="80" height="80" as="geometry" />
        </mxCell>
        <mxCell id="4fpd6pDYD6I8LovXb1lp-12" value="Merchant" style="rounded=0;whiteSpace=wrap;html=1;" parent="1" vertex="1">
          <mxGeometry x="-322.5" y="225" width="120" height="60" as="geometry" />
        </mxCell>
        <mxCell id="4fpd6pDYD6I8LovXb1lp-18" value="" style="endArrow=none;html=1;strokeWidth=1;entryX=1;entryY=0.5;entryDx=0;entryDy=0;exitX=0;exitY=0.5;exitDx=0;exitDy=0;" parent="1" source="4fpd6pDYD6I8LovXb1lp-1" target="4fpd6pDYD6I8LovXb1lp-11" edge="1">
          <mxGeometry width="50" height="50" relative="1" as="geometry">
            <mxPoint x="300" y="-30" as="sourcePoint" />
            <mxPoint x="350" y="-80" as="targetPoint" />
          </mxGeometry>
        </mxCell>
        <mxCell id="4fpd6pDYD6I8LovXb1lp-22" value="" style="endArrow=none;html=1;strokeWidth=6;entryX=0;entryY=1;entryDx=0;entryDy=0;exitX=1;exitY=0.25;exitDx=0;exitDy=0;" parent="1" source="4fpd6pDYD6I8LovXb1lp-1" target="4fpd6pDYD6I8LovXb1lp-6" edge="1">
          <mxGeometry width="50" height="50" relative="1" as="geometry">
            <mxPoint x="690" y="90" as="sourcePoint" />
            <mxPoint x="550" y="60" as="targetPoint" />
          </mxGeometry>
        </mxCell>
        <mxCell id="4fpd6pDYD6I8LovXb1lp-28" value="Land Type" style="ellipse;whiteSpace=wrap;html=1;" parent="1" vertex="1">
          <mxGeometry x="870" y="-172.5" width="110" height="40" as="geometry" />
        </mxCell>
        <mxCell id="4fpd6pDYD6I8LovXb1lp-29" value="" style="endArrow=none;html=1;strokeWidth=1;entryX=0;entryY=0.5;entryDx=0;entryDy=0;exitX=1;exitY=0.25;exitDx=0;exitDy=0;" parent="1" source="aPKXd2xIz4nXnnE8rZUF-1" target="4fpd6pDYD6I8LovXb1lp-28" edge="1">
          <mxGeometry width="50" height="50" relative="1" as="geometry">
            <mxPoint x="515" y="-105" as="sourcePoint" />
            <mxPoint x="565" y="-155" as="targetPoint" />
          </mxGeometry>
        </mxCell>
        <mxCell id="4fpd6pDYD6I8LovXb1lp-30" value="" style="endArrow=none;html=1;strokeWidth=1;exitX=0;exitY=1;exitDx=0;exitDy=0;entryX=1;entryY=0;entryDx=0;entryDy=0;" parent="1" source="4fpd6pDYD6I8LovXb1lp-11" target="4fpd6pDYD6I8LovXb1lp-31" edge="1">
          <mxGeometry width="50" height="50" relative="1" as="geometry">
            <mxPoint x="310" y="-130" as="sourcePoint" />
            <mxPoint x="290" y="-40" as="targetPoint" />
          </mxGeometry>
        </mxCell>
        <mxCell id="4fpd6pDYD6I8LovXb1lp-31" value="TributeType" style="ellipse;whiteSpace=wrap;html=1;" parent="1" vertex="1">
          <mxGeometry x="200" y="145" width="100" height="40" as="geometry" />
        </mxCell>
        <mxCell id="4fpd6pDYD6I8LovXb1lp-32" value="Frequency" style="ellipse;whiteSpace=wrap;html=1;" parent="1" vertex="1">
          <mxGeometry x="360" y="140" width="90" height="40" as="geometry" />
        </mxCell>
        <mxCell id="4fpd6pDYD6I8LovXb1lp-33" value="" style="endArrow=none;html=1;strokeWidth=1;exitX=0;exitY=0;exitDx=0;exitDy=0;entryX=1;entryY=1;entryDx=0;entryDy=0;" parent="1" source="4fpd6pDYD6I8LovXb1lp-32" target="4fpd6pDYD6I8LovXb1lp-11" edge="1">
          <mxGeometry width="50" height="50" relative="1" as="geometry">
            <mxPoint x="410" y="-160" as="sourcePoint" />
            <mxPoint x="460" y="-210" as="targetPoint" />
          </mxGeometry>
        </mxCell>
        <mxCell id="4fpd6pDYD6I8LovXb1lp-34" value="Name" style="ellipse;whiteSpace=wrap;html=1;fontStyle=0" parent="1" vertex="1">
          <mxGeometry x="-160" y="30" width="90" height="40" as="geometry" />
        </mxCell>
        <mxCell id="4fpd6pDYD6I8LovXb1lp-36" value="Religious Denomination" style="ellipse;whiteSpace=wrap;html=1;fontStyle=0" parent="1" vertex="1">
          <mxGeometry x="-160" y="-30" width="90" height="45" as="geometry" />
        </mxCell>
        <mxCell id="4fpd6pDYD6I8LovXb1lp-37" value="" style="endArrow=none;html=1;strokeWidth=1;entryX=1;entryY=0.5;entryDx=0;entryDy=0;exitX=0;exitY=0.75;exitDx=0;exitDy=0;" parent="1" source="Cuf-alw472HuKOEhcysz-2" target="4fpd6pDYD6I8LovXb1lp-34" edge="1">
          <mxGeometry width="50" height="50" relative="1" as="geometry">
            <mxPoint x="260" y="-110" as="sourcePoint" />
            <mxPoint x="310" y="-160" as="targetPoint" />
          </mxGeometry>
        </mxCell>
        <mxCell id="4fpd6pDYD6I8LovXb1lp-39" value="" style="endArrow=none;html=1;strokeWidth=1;exitX=1;exitY=0.5;exitDx=0;exitDy=0;entryX=0;entryY=0.5;entryDx=0;entryDy=0;" parent="1" source="4fpd6pDYD6I8LovXb1lp-36" target="Cuf-alw472HuKOEhcysz-2" edge="1">
          <mxGeometry width="50" height="50" relative="1" as="geometry">
            <mxPoint x="350" y="375" as="sourcePoint" />
            <mxPoint x="200" y="245" as="targetPoint" />
          </mxGeometry>
        </mxCell>
        <mxCell id="4fpd6pDYD6I8LovXb1lp-45" value="trades" style="rhombus;whiteSpace=wrap;html=1;" parent="1" vertex="1">
          <mxGeometry x="50" y="-160" width="80" height="80" as="geometry" />
        </mxCell>
        <mxCell id="4fpd6pDYD6I8LovXb1lp-49" value="Location" style="ellipse;whiteSpace=wrap;html=1;fontStyle=4" parent="1" vertex="1">
          <mxGeometry x="875" y="-72.5" width="100" height="40" as="geometry" />
        </mxCell>
        <mxCell id="4fpd6pDYD6I8LovXb1lp-50" value="" style="endArrow=none;html=1;strokeWidth=1;entryX=0;entryY=0.5;entryDx=0;entryDy=0;exitX=1;exitY=0.75;exitDx=0;exitDy=0;" parent="1" source="aPKXd2xIz4nXnnE8rZUF-1" target="4fpd6pDYD6I8LovXb1lp-49" edge="1">
          <mxGeometry width="50" height="50" relative="1" as="geometry">
            <mxPoint x="385" y="-25" as="sourcePoint" />
            <mxPoint x="780" y="-65" as="targetPoint" />
          </mxGeometry>
        </mxCell>
        <mxCell id="4fpd6pDYD6I8LovXb1lp-51" value="" style="endArrow=none;html=1;strokeWidth=1;exitX=0;exitY=0;exitDx=0;exitDy=0;entryX=1;entryY=1;entryDx=0;entryDy=0;" parent="1" source="4fpd6pDYD6I8LovXb1lp-45" target="4fpd6pDYD6I8LovXb1lp-52" edge="1">
          <mxGeometry width="50" height="50" relative="1" as="geometry">
            <mxPoint x="330" y="-50" as="sourcePoint" />
            <mxPoint x="140" y="130" as="targetPoint" />
          </mxGeometry>
        </mxCell>
        <mxCell id="4fpd6pDYD6I8LovXb1lp-52" value="Goods Traded" style="ellipse;whiteSpace=wrap;html=1;" parent="1" vertex="1">
          <mxGeometry x="-60" y="-190" width="110" height="40" as="geometry" />
        </mxCell>
        <mxCell id="4fpd6pDYD6I8LovXb1lp-53" value="&lt;u&gt;Date&lt;/u&gt;" style="ellipse;whiteSpace=wrap;html=1;" parent="1" vertex="1">
          <mxGeometry x="70.02" y="-200" width="90" height="35" as="geometry" />
        </mxCell>
        <mxCell id="4fpd6pDYD6I8LovXb1lp-54" value="" style="endArrow=none;html=1;strokeWidth=1;entryX=0.5;entryY=1;entryDx=0;entryDy=0;exitX=1;exitY=0;exitDx=0;exitDy=0;" parent="1" source="4fpd6pDYD6I8LovXb1lp-45" target="4fpd6pDYD6I8LovXb1lp-53" edge="1">
          <mxGeometry width="50" height="50" relative="1" as="geometry">
            <mxPoint x="330" y="100" as="sourcePoint" />
            <mxPoint x="380" y="50" as="targetPoint" />
          </mxGeometry>
        </mxCell>
        <mxCell id="4fpd6pDYD6I8LovXb1lp-56" value="Hometown" style="ellipse;whiteSpace=wrap;html=1;fontStyle=0" parent="1" vertex="1">
          <mxGeometry x="-311.25" y="172.5" width="97.5" height="35" as="geometry" />
        </mxCell>
        <mxCell id="4fpd6pDYD6I8LovXb1lp-58" value="" style="endArrow=none;html=1;strokeWidth=1;exitX=0.5;exitY=1;exitDx=0;exitDy=0;entryX=0.5;entryY=0;entryDx=0;entryDy=0;" parent="1" source="4fpd6pDYD6I8LovXb1lp-56" target="4fpd6pDYD6I8LovXb1lp-12" edge="1">
          <mxGeometry width="50" height="50" relative="1" as="geometry">
            <mxPoint x="30" y="165" as="sourcePoint" />
            <mxPoint x="80" y="115" as="targetPoint" />
          </mxGeometry>
        </mxCell>
        <mxCell id="rdHlLhwSsZ7i2NpKsFgc-24" style="rounded=0;orthogonalLoop=1;jettySize=auto;html=1;exitX=1;exitY=0.5;exitDx=0;exitDy=0;entryX=0;entryY=0.5;entryDx=0;entryDy=0;" parent="1" source="Cuf-alw472HuKOEhcysz-2" target="aPKXd2xIz4nXnnE8rZUF-2" edge="1">
          <mxGeometry relative="1" as="geometry" />
        </mxCell>
        <mxCell id="Cuf-alw472HuKOEhcysz-2" value="Citizen" style="rounded=0;whiteSpace=wrap;html=1;" parent="1" vertex="1">
          <mxGeometry x="30" y="-20" width="120" height="50" as="geometry" />
        </mxCell>
        <mxCell id="Cuf-alw472HuKOEhcysz-4" value="ISA" style="triangle;whiteSpace=wrap;html=1;direction=north;" parent="1" vertex="1">
          <mxGeometry x="-202.5" y="125" width="80" height="60" as="geometry" />
        </mxCell>
        <mxCell id="Cuf-alw472HuKOEhcysz-9" value="" style="endArrow=none;html=1;entryX=1;entryY=1;entryDx=0;entryDy=0;" parent="1" target="4fpd6pDYD6I8LovXb1lp-45" edge="1">
          <mxGeometry width="50" height="50" relative="1" as="geometry">
            <mxPoint x="120" y="-20" as="sourcePoint" />
            <mxPoint x="650" y="60" as="targetPoint" />
          </mxGeometry>
        </mxCell>
        <mxCell id="Cuf-alw472HuKOEhcysz-11" value="" style="endArrow=none;html=1;exitX=0;exitY=0.25;exitDx=0;exitDy=0;entryX=0;entryY=0.75;entryDx=0;entryDy=0;" parent="1" source="aPKXd2xIz4nXnnE8rZUF-4" target="Cuf-alw472HuKOEhcysz-4" edge="1">
          <mxGeometry width="50" height="50" relative="1" as="geometry">
            <mxPoint x="350" y="115" as="sourcePoint" />
            <mxPoint x="400" y="65" as="targetPoint" />
          </mxGeometry>
        </mxCell>
        <mxCell id="Cuf-alw472HuKOEhcysz-14" value="" style="endArrow=none;html=1;exitX=1;exitY=0.25;exitDx=0;exitDy=0;entryX=0;entryY=0.25;entryDx=0;entryDy=0;" parent="1" source="4fpd6pDYD6I8LovXb1lp-12" target="Cuf-alw472HuKOEhcysz-4" edge="1">
          <mxGeometry width="50" height="50" relative="1" as="geometry">
            <mxPoint x="350" y="115" as="sourcePoint" />
            <mxPoint x="400" y="65" as="targetPoint" />
          </mxGeometry>
        </mxCell>
        <mxCell id="Cuf-alw472HuKOEhcysz-16" value="" style="endArrow=none;html=1;entryX=0;entryY=1;entryDx=0;entryDy=0;exitX=0.25;exitY=0;exitDx=0;exitDy=0;" parent="1" source="Cuf-alw472HuKOEhcysz-2" target="4fpd6pDYD6I8LovXb1lp-45" edge="1">
          <mxGeometry width="50" height="50" relative="1" as="geometry">
            <mxPoint x="600" y="110" as="sourcePoint" />
            <mxPoint x="650" y="60" as="targetPoint" />
          </mxGeometry>
        </mxCell>
        <mxCell id="Cuf-alw472HuKOEhcysz-17" value="CID" style="ellipse;whiteSpace=wrap;html=1;fontStyle=4" parent="1" vertex="1">
          <mxGeometry x="-157.5" y="-90" width="85" height="45" as="geometry" />
        </mxCell>
        <mxCell id="Cuf-alw472HuKOEhcysz-19" value="" style="endArrow=none;html=1;exitX=1;exitY=1;exitDx=0;exitDy=0;entryX=0;entryY=0.25;entryDx=0;entryDy=0;" parent="1" source="Cuf-alw472HuKOEhcysz-17" target="Cuf-alw472HuKOEhcysz-2" edge="1">
          <mxGeometry width="50" height="50" relative="1" as="geometry">
            <mxPoint x="600" y="110" as="sourcePoint" />
            <mxPoint x="650" y="60" as="targetPoint" />
          </mxGeometry>
        </mxCell>
        <mxCell id="Cuf-alw472HuKOEhcysz-20" value="" style="endArrow=none;html=1;exitX=0.25;exitY=1;exitDx=0;exitDy=0;entryX=1;entryY=0.5;entryDx=0;entryDy=0;" parent="1" source="Cuf-alw472HuKOEhcysz-2" target="Cuf-alw472HuKOEhcysz-4" edge="1">
          <mxGeometry width="50" height="50" relative="1" as="geometry">
            <mxPoint x="600" y="110" as="sourcePoint" />
            <mxPoint x="650" y="60" as="targetPoint" />
          </mxGeometry>
        </mxCell>
        <mxCell id="Cuf-alw472HuKOEhcysz-22" value="Title" style="ellipse;whiteSpace=wrap;html=1;fontStyle=4" parent="1" vertex="1">
          <mxGeometry x="589.98" y="185" width="90" height="30" as="geometry" />
        </mxCell>
        <mxCell id="Cuf-alw472HuKOEhcysz-38" value="Amount" style="ellipse;whiteSpace=wrap;html=1;" parent="1" vertex="1">
          <mxGeometry x="285" y="185" width="90" height="40" as="geometry" />
        </mxCell>
        <mxCell id="Cuf-alw472HuKOEhcysz-39" value="" style="endArrow=none;html=1;strokeWidth=1;exitX=0.5;exitY=0;exitDx=0;exitDy=0;entryX=0.5;entryY=1;entryDx=0;entryDy=0;" parent="1" source="Cuf-alw472HuKOEhcysz-38" target="4fpd6pDYD6I8LovXb1lp-11" edge="1">
          <mxGeometry width="50" height="50" relative="1" as="geometry">
            <mxPoint x="363.18019484660545" y="165.85786437626916" as="sourcePoint" />
            <mxPoint x="360" y="105" as="targetPoint" />
          </mxGeometry>
        </mxCell>
        <mxCell id="Cuf-alw472HuKOEhcysz-42" value="Type" style="ellipse;whiteSpace=wrap;html=1;fontStyle=0" parent="1" vertex="1">
          <mxGeometry x="-107.5" y="175" width="95" height="30" as="geometry" />
        </mxCell>
        <mxCell id="Cuf-alw472HuKOEhcysz-43" value="" style="endArrow=none;html=1;exitX=0.5;exitY=1;exitDx=0;exitDy=0;entryX=0.5;entryY=0;entryDx=0;entryDy=0;" parent="1" source="Cuf-alw472HuKOEhcysz-42" target="aPKXd2xIz4nXnnE8rZUF-4" edge="1">
          <mxGeometry width="50" height="50" relative="1" as="geometry">
            <mxPoint x="-30" y="45" as="sourcePoint" />
            <mxPoint x="-150" y="135" as="targetPoint" />
          </mxGeometry>
        </mxCell>
        <mxCell id="Bpu9ONig5MRV0NCOvyTA-1" value="Army" style="rounded=0;whiteSpace=wrap;html=1;" parent="1" vertex="1">
          <mxGeometry x="150" y="280" width="120" height="60" as="geometry" />
        </mxCell>
        <mxCell id="Bpu9ONig5MRV0NCOvyTA-2" value="" style="endArrow=classic;html=1;exitX=0.75;exitY=1;exitDx=0;exitDy=0;entryX=0.5;entryY=0;entryDx=0;entryDy=0;" parent="1" source="Cuf-alw472HuKOEhcysz-2" target="Bpu9ONig5MRV0NCOvyTA-3" edge="1">
          <mxGeometry width="50" height="50" relative="1" as="geometry">
            <mxPoint x="280" y="150" as="sourcePoint" />
            <mxPoint x="150" y="140" as="targetPoint" />
          </mxGeometry>
        </mxCell>
        <mxCell id="Bpu9ONig5MRV0NCOvyTA-3" value="serves in" style="rhombus;whiteSpace=wrap;html=1;" parent="1" vertex="1">
          <mxGeometry x="120" y="145" width="80" height="80" as="geometry" />
        </mxCell>
        <mxCell id="Bpu9ONig5MRV0NCOvyTA-4" value="" style="endArrow=none;html=1;entryX=0.5;entryY=1;entryDx=0;entryDy=0;exitX=0.25;exitY=0;exitDx=0;exitDy=0;" parent="1" source="Bpu9ONig5MRV0NCOvyTA-1" target="Bpu9ONig5MRV0NCOvyTA-3" edge="1">
          <mxGeometry width="50" height="50" relative="1" as="geometry">
            <mxPoint x="170" y="270" as="sourcePoint" />
            <mxPoint x="330" y="100" as="targetPoint" />
          </mxGeometry>
        </mxCell>
        <mxCell id="Bpu9ONig5MRV0NCOvyTA-5" value="levies" style="rhombus;whiteSpace=wrap;html=1;" parent="1" vertex="1">
          <mxGeometry x="345" y="270" width="80" height="80" as="geometry" />
        </mxCell>
        <mxCell id="Bpu9ONig5MRV0NCOvyTA-8" value="" style="endArrow=classic;html=1;entryX=1;entryY=0.5;entryDx=0;entryDy=0;exitX=0;exitY=1;exitDx=0;exitDy=0;" parent="1" source="4fpd6pDYD6I8LovXb1lp-1" target="Bpu9ONig5MRV0NCOvyTA-5" edge="1">
          <mxGeometry width="50" height="50" relative="1" as="geometry">
            <mxPoint x="280" y="150" as="sourcePoint" />
            <mxPoint x="330" y="100" as="targetPoint" />
          </mxGeometry>
        </mxCell>
        <mxCell id="Bpu9ONig5MRV0NCOvyTA-9" value="battles" style="rhombus;whiteSpace=wrap;html=1;" parent="1" vertex="1">
          <mxGeometry x="170" y="400" width="80" height="80" as="geometry" />
        </mxCell>
        <mxCell id="Bpu9ONig5MRV0NCOvyTA-10" value="&lt;u&gt;Unit&lt;/u&gt;" style="ellipse;whiteSpace=wrap;html=1;" parent="1" vertex="1">
          <mxGeometry x="15" y="365" width="100" height="50" as="geometry" />
        </mxCell>
        <mxCell id="Bpu9ONig5MRV0NCOvyTA-11" value="&lt;u&gt;Date&lt;/u&gt;" style="ellipse;whiteSpace=wrap;html=1;" parent="1" vertex="1">
          <mxGeometry x="320" y="415" width="100" height="50" as="geometry" />
        </mxCell>
        <mxCell id="Bpu9ONig5MRV0NCOvyTA-12" value="" style="endArrow=none;html=1;exitX=0;exitY=0;exitDx=0;exitDy=0;entryX=0.25;entryY=1;entryDx=0;entryDy=0;" parent="1" source="Bpu9ONig5MRV0NCOvyTA-9" target="Bpu9ONig5MRV0NCOvyTA-1" edge="1">
          <mxGeometry width="50" height="50" relative="1" as="geometry">
            <mxPoint x="250" y="250" as="sourcePoint" />
            <mxPoint x="300" y="200" as="targetPoint" />
          </mxGeometry>
        </mxCell>
        <mxCell id="Bpu9ONig5MRV0NCOvyTA-13" value="" style="endArrow=none;html=1;exitX=1;exitY=0;exitDx=0;exitDy=0;entryX=0.75;entryY=1;entryDx=0;entryDy=0;" parent="1" source="Bpu9ONig5MRV0NCOvyTA-9" target="Bpu9ONig5MRV0NCOvyTA-1" edge="1">
          <mxGeometry width="50" height="50" relative="1" as="geometry">
            <mxPoint x="250" y="250" as="sourcePoint" />
            <mxPoint x="240" y="350" as="targetPoint" />
          </mxGeometry>
        </mxCell>
        <mxCell id="Bpu9ONig5MRV0NCOvyTA-14" value="" style="endArrow=none;html=1;exitX=1;exitY=0.5;exitDx=0;exitDy=0;entryX=0;entryY=1;entryDx=0;entryDy=0;" parent="1" source="Bpu9ONig5MRV0NCOvyTA-10" target="Bpu9ONig5MRV0NCOvyTA-1" edge="1">
          <mxGeometry width="50" height="50" relative="1" as="geometry">
            <mxPoint x="250" y="250" as="sourcePoint" />
            <mxPoint x="300" y="200" as="targetPoint" />
          </mxGeometry>
        </mxCell>
        <mxCell id="Bpu9ONig5MRV0NCOvyTA-15" value="" style="endArrow=none;html=1;exitX=1;exitY=0.5;exitDx=0;exitDy=0;entryX=0;entryY=0.5;entryDx=0;entryDy=0;" parent="1" source="Bpu9ONig5MRV0NCOvyTA-9" target="Bpu9ONig5MRV0NCOvyTA-11" edge="1">
          <mxGeometry width="50" height="50" relative="1" as="geometry">
            <mxPoint x="250" y="250" as="sourcePoint" />
            <mxPoint x="300" y="200" as="targetPoint" />
          </mxGeometry>
        </mxCell>
        <mxCell id="Bpu9ONig5MRV0NCOvyTA-16" value="" style="endArrow=none;html=1;exitX=1;exitY=1;exitDx=0;exitDy=0;" parent="1" source="Bpu9ONig5MRV0NCOvyTA-9" target="Bpu9ONig5MRV0NCOvyTA-17" edge="1">
          <mxGeometry width="50" height="50" relative="1" as="geometry">
            <mxPoint x="250" y="250" as="sourcePoint" />
            <mxPoint x="320" y="500" as="targetPoint" />
          </mxGeometry>
        </mxCell>
        <mxCell id="Bpu9ONig5MRV0NCOvyTA-17" value="Location" style="ellipse;whiteSpace=wrap;html=1;" parent="1" vertex="1">
          <mxGeometry x="320" y="480" width="105" height="50" as="geometry" />
        </mxCell>
        <mxCell id="Bpu9ONig5MRV0NCOvyTA-21" value="Holiday" style="rounded=0;whiteSpace=wrap;html=1;" parent="1" vertex="1">
          <mxGeometry x="115" y="-290" width="120" height="60" as="geometry" />
        </mxCell>
        <mxCell id="Bpu9ONig5MRV0NCOvyTA-22" value="celebrates" style="rhombus;whiteSpace=wrap;html=1;" parent="1" vertex="1">
          <mxGeometry x="135" y="-160" width="80" height="80" as="geometry" />
        </mxCell>
        <mxCell id="Bpu9ONig5MRV0NCOvyTA-23" value="" style="endArrow=none;html=1;exitX=1;exitY=0;exitDx=0;exitDy=0;entryX=0.5;entryY=1;entryDx=0;entryDy=0;" parent="1" source="Cuf-alw472HuKOEhcysz-2" target="Bpu9ONig5MRV0NCOvyTA-22" edge="1">
          <mxGeometry width="50" height="50" relative="1" as="geometry">
            <mxPoint x="240" y="50" as="sourcePoint" />
            <mxPoint x="243" y="-120" as="targetPoint" />
          </mxGeometry>
        </mxCell>
        <mxCell id="Bpu9ONig5MRV0NCOvyTA-24" value="" style="endArrow=none;html=1;entryX=0.5;entryY=1;entryDx=0;entryDy=0;exitX=0.5;exitY=0;exitDx=0;exitDy=0;" parent="1" source="Bpu9ONig5MRV0NCOvyTA-22" target="Bpu9ONig5MRV0NCOvyTA-21" edge="1">
          <mxGeometry width="50" height="50" relative="1" as="geometry">
            <mxPoint x="280" y="130" as="sourcePoint" />
            <mxPoint x="350" y="-160" as="targetPoint" />
          </mxGeometry>
        </mxCell>
        <mxCell id="Bpu9ONig5MRV0NCOvyTA-25" value="Name" style="ellipse;whiteSpace=wrap;html=1;fontStyle=4" parent="1" vertex="1">
          <mxGeometry x="40" y="-355" width="95" height="40" as="geometry" />
        </mxCell>
        <mxCell id="Bpu9ONig5MRV0NCOvyTA-26" value="Date" style="ellipse;whiteSpace=wrap;html=1;fontStyle=0" parent="1" vertex="1">
          <mxGeometry x="125" y="-400" width="100" height="50" as="geometry" />
        </mxCell>
        <mxCell id="Bpu9ONig5MRV0NCOvyTA-27" value="" style="endArrow=none;html=1;entryX=1;entryY=1;entryDx=0;entryDy=0;exitX=0.25;exitY=0;exitDx=0;exitDy=0;" parent="1" source="Bpu9ONig5MRV0NCOvyTA-21" target="Bpu9ONig5MRV0NCOvyTA-25" edge="1">
          <mxGeometry width="50" height="50" relative="1" as="geometry">
            <mxPoint x="350" y="-180" as="sourcePoint" />
            <mxPoint x="320" y="10" as="targetPoint" />
          </mxGeometry>
        </mxCell>
        <mxCell id="Bpu9ONig5MRV0NCOvyTA-28" value="" style="endArrow=none;html=1;entryX=0.5;entryY=1;entryDx=0;entryDy=0;" parent="1" target="Bpu9ONig5MRV0NCOvyTA-26" edge="1">
          <mxGeometry width="50" height="50" relative="1" as="geometry">
            <mxPoint x="175" y="-292" as="sourcePoint" />
            <mxPoint x="320" y="10" as="targetPoint" />
          </mxGeometry>
        </mxCell>
        <mxCell id="Bpu9ONig5MRV0NCOvyTA-33" value="WorkingFunction" style="ellipse;whiteSpace=wrap;html=1;" parent="1" vertex="1">
          <mxGeometry x="875" y="-122.5" width="100" height="40" as="geometry" />
        </mxCell>
        <mxCell id="Bpu9ONig5MRV0NCOvyTA-47" value="" style="endArrow=none;html=1;entryX=0;entryY=0.5;entryDx=0;entryDy=0;exitX=1;exitY=0.5;exitDx=0;exitDy=0;" parent="1" source="aPKXd2xIz4nXnnE8rZUF-1" target="Bpu9ONig5MRV0NCOvyTA-33" edge="1">
          <mxGeometry width="50" height="50" relative="1" as="geometry">
            <mxPoint x="455" y="55" as="sourcePoint" />
            <mxPoint x="505" y="5" as="targetPoint" />
          </mxGeometry>
        </mxCell>
        <mxCell id="rdHlLhwSsZ7i2NpKsFgc-4" value="" style="endArrow=none;html=1;entryX=1;entryY=1;entryDx=0;entryDy=0;exitX=0.25;exitY=0;exitDx=0;exitDy=0;" parent="1" source="4fpd6pDYD6I8LovXb1lp-1" target="aPKXd2xIz4nXnnE8rZUF-2" edge="1">
          <mxGeometry width="50" height="50" relative="1" as="geometry">
            <mxPoint x="575" y="80" as="sourcePoint" />
            <mxPoint x="590" y="-30" as="targetPoint" />
          </mxGeometry>
        </mxCell>
        <mxCell id="rdHlLhwSsZ7i2NpKsFgc-6" value="Salary" style="ellipse;whiteSpace=wrap;html=1;" parent="1" vertex="1">
          <mxGeometry x="365" width="80" height="40" as="geometry" />
        </mxCell>
        <mxCell id="rdHlLhwSsZ7i2NpKsFgc-7" value="" style="endArrow=none;html=1;entryX=0;entryY=1;entryDx=0;entryDy=0;exitX=1;exitY=0;exitDx=0;exitDy=0;" parent="1" source="rdHlLhwSsZ7i2NpKsFgc-6" target="aPKXd2xIz4nXnnE8rZUF-2" edge="1">
          <mxGeometry width="50" height="50" relative="1" as="geometry">
            <mxPoint x="500" as="sourcePoint" />
            <mxPoint x="630" y="-62.5" as="targetPoint" />
          </mxGeometry>
        </mxCell>
        <mxCell id="rdHlLhwSsZ7i2NpKsFgc-22" value="" style="endArrow=classic;html=1;strokeWidth=5;exitX=0.5;exitY=1;exitDx=0;exitDy=0;entryX=0.5;entryY=0;entryDx=0;entryDy=0;" parent="1" source="aPKXd2xIz4nXnnE8rZUF-1" target="4fpd6pDYD6I8LovXb1lp-6" edge="1">
          <mxGeometry width="50" height="50" relative="1" as="geometry">
            <mxPoint x="859.9999999999998" y="-2.5000000000002274" as="sourcePoint" />
            <mxPoint x="999.9999999999998" y="102.5" as="targetPoint" />
            <Array as="points" />
          </mxGeometry>
        </mxCell>
        <mxCell id="rdHlLhwSsZ7i2NpKsFgc-25" value="" style="endArrow=none;html=1;entryX=1;entryY=0.5;entryDx=0;entryDy=0;exitX=0;exitY=0.5;exitDx=0;exitDy=0;" parent="1" source="aPKXd2xIz4nXnnE8rZUF-1" target="aPKXd2xIz4nXnnE8rZUF-2" edge="1">
          <mxGeometry width="50" height="50" relative="1" as="geometry">
            <mxPoint x="614.98" y="90" as="sourcePoint" />
            <mxPoint x="615" y="-46.25" as="targetPoint" />
          </mxGeometry>
        </mxCell>
        <mxCell id="rdHlLhwSsZ7i2NpKsFgc-26" value="" style="endArrow=none;html=1;strokeWidth=6;exitX=1;exitY=0.75;exitDx=0;exitDy=0;" parent="1" source="Cuf-alw472HuKOEhcysz-2" edge="1">
          <mxGeometry width="50" height="50" relative="1" as="geometry">
            <mxPoint x="704.98" y="105" as="sourcePoint" />
            <mxPoint x="290" y="110" as="targetPoint" />
          </mxGeometry>
        </mxCell>
        <mxCell id="gx7Me7_OyIYNi3oS1Gjp-19" value="Associated Religion" style="ellipse;whiteSpace=wrap;html=1;fontStyle=4" parent="1" vertex="1">
          <mxGeometry x="215" y="-360" width="90" height="50" as="geometry" />
        </mxCell>
        <mxCell id="gx7Me7_OyIYNi3oS1Gjp-20" value="" style="endArrow=none;html=1;strokeColor=#000000;strokeWidth=1;exitX=0.75;exitY=0;exitDx=0;exitDy=0;entryX=0;entryY=1;entryDx=0;entryDy=0;" parent="1" source="Bpu9ONig5MRV0NCOvyTA-21" target="gx7Me7_OyIYNi3oS1Gjp-19" edge="1">
          <mxGeometry width="50" height="50" relative="1" as="geometry">
            <mxPoint x="510" y="-240" as="sourcePoint" />
            <mxPoint x="560" y="-290" as="targetPoint" />
          </mxGeometry>
        </mxCell>
        <mxCell id="zEuTv6TQkIkxdn-Qtf5L-1" value="Structure" style="rounded=0;whiteSpace=wrap;html=1;strokeWidth=5;" parent="1" vertex="1">
          <mxGeometry x="710" y="-360" width="120" height="60" as="geometry" />
        </mxCell>
        <mxCell id="zEuTv6TQkIkxdn-Qtf5L-2" value="" style="endArrow=none;html=1;exitX=1;exitY=1;exitDx=0;exitDy=0;" parent="1" source="zEuTv6TQkIkxdn-Qtf5L-3" edge="1">
          <mxGeometry width="50" height="50" relative="1" as="geometry">
            <mxPoint x="670" y="-370" as="sourcePoint" />
            <mxPoint x="740" y="-360" as="targetPoint" />
          </mxGeometry>
        </mxCell>
        <mxCell id="zEuTv6TQkIkxdn-Qtf5L-3" value="StructureType" style="ellipse;whiteSpace=wrap;html=1;" parent="1" vertex="1">
          <mxGeometry x="630" y="-420" width="90" height="50" as="geometry" />
        </mxCell>
        <mxCell id="zEuTv6TQkIkxdn-Qtf5L-4" value="Dimensions" style="ellipse;whiteSpace=wrap;html=1;" parent="1" vertex="1">
          <mxGeometry x="720" y="-440" width="100" height="50" as="geometry" />
        </mxCell>
        <mxCell id="zEuTv6TQkIkxdn-Qtf5L-5" value="is bulilt on" style="rhombus;whiteSpace=wrap;html=1;strokeWidth=5;" parent="1" vertex="1">
          <mxGeometry x="730" y="-245" width="80" height="80" as="geometry" />
        </mxCell>
        <mxCell id="zEuTv6TQkIkxdn-Qtf5L-7" value="" style="endArrow=classic;html=1;entryX=0.5;entryY=0;entryDx=0;entryDy=0;strokeWidth=5;exitX=0.5;exitY=1;exitDx=0;exitDy=0;" parent="1" source="zEuTv6TQkIkxdn-Qtf5L-1" target="zEuTv6TQkIkxdn-Qtf5L-5" edge="1">
          <mxGeometry width="50" height="50" relative="1" as="geometry">
            <mxPoint x="710" y="-270" as="sourcePoint" />
            <mxPoint x="540" y="-260" as="targetPoint" />
          </mxGeometry>
        </mxCell>
        <mxCell id="zEuTv6TQkIkxdn-Qtf5L-9" value="" style="endArrow=none;html=1;entryX=0.5;entryY=1;entryDx=0;entryDy=0;exitX=0.5;exitY=0;exitDx=0;exitDy=0;" parent="1" source="zEuTv6TQkIkxdn-Qtf5L-1" target="zEuTv6TQkIkxdn-Qtf5L-4" edge="1">
          <mxGeometry width="50" height="50" relative="1" as="geometry">
            <mxPoint x="490" y="-210" as="sourcePoint" />
            <mxPoint x="540" y="-260" as="targetPoint" />
          </mxGeometry>
        </mxCell>
        <mxCell id="zEuTv6TQkIkxdn-Qtf5L-10" value="Relative&lt;br&gt;Coordinates" style="ellipse;whiteSpace=wrap;html=1;fontStyle=4" parent="1" vertex="1">
          <mxGeometry x="820" y="-420" width="90" height="50" as="geometry" />
        </mxCell>
        <mxCell id="zEuTv6TQkIkxdn-Qtf5L-11" value="" style="endArrow=none;html=1;strokeWidth=1;entryX=0;entryY=1;entryDx=0;entryDy=0;exitX=0.75;exitY=0;exitDx=0;exitDy=0;" parent="1" source="zEuTv6TQkIkxdn-Qtf5L-1" target="zEuTv6TQkIkxdn-Qtf5L-10" edge="1">
          <mxGeometry width="50" height="50" relative="1" as="geometry">
            <mxPoint x="490" y="-170" as="sourcePoint" />
            <mxPoint x="540" y="-220" as="targetPoint" />
          </mxGeometry>
        </mxCell>
        <mxCell id="ThvfyFaF6rC_6EWFUeGO-19" value="Livestock" style="rounded=0;whiteSpace=wrap;html=1;" parent="1" vertex="1">
          <mxGeometry x="404.98" y="-350" width="120" height="60" as="geometry" />
        </mxCell>
        <mxCell id="ThvfyFaF6rC_6EWFUeGO-20" value="" style="endArrow=none;html=1;strokeWidth=1;entryX=1;entryY=0.25;entryDx=0;entryDy=0;exitX=0;exitY=0.5;exitDx=0;exitDy=0;" parent="1" source="ThvfyFaF6rC_6EWFUeGO-32" target="Cuf-alw472HuKOEhcysz-2" edge="1">
          <mxGeometry width="50" height="50" relative="1" as="geometry">
            <mxPoint x="360" y="-200" as="sourcePoint" />
            <mxPoint x="414.98" y="-180" as="targetPoint" />
          </mxGeometry>
        </mxCell>
        <mxCell id="ThvfyFaF6rC_6EWFUeGO-21" value="&lt;u&gt;Tag ID&lt;/u&gt;" style="ellipse;whiteSpace=wrap;html=1;" parent="1" vertex="1">
          <mxGeometry x="435" y="-450" width="70" height="50" as="geometry" />
        </mxCell>
        <mxCell id="ThvfyFaF6rC_6EWFUeGO-22" value="Species" style="ellipse;whiteSpace=wrap;html=1;" parent="1" vertex="1">
          <mxGeometry x="345" y="-450" width="70" height="50" as="geometry" />
        </mxCell>
        <mxCell id="ThvfyFaF6rC_6EWFUeGO-23" value="Health condition" style="ellipse;whiteSpace=wrap;html=1;" parent="1" vertex="1">
          <mxGeometry x="530" y="-430" width="70" height="50" as="geometry" />
        </mxCell>
        <mxCell id="ThvfyFaF6rC_6EWFUeGO-24" value="" style="endArrow=none;html=1;strokeWidth=1;exitX=0;exitY=1;exitDx=0;exitDy=0;entryX=0.75;entryY=0;entryDx=0;entryDy=0;" parent="1" source="ThvfyFaF6rC_6EWFUeGO-23" target="ThvfyFaF6rC_6EWFUeGO-19" edge="1">
          <mxGeometry width="50" height="50" relative="1" as="geometry">
            <mxPoint x="434.96000000000004" y="-150" as="sourcePoint" />
            <mxPoint x="484.96000000000004" y="-200" as="targetPoint" />
          </mxGeometry>
        </mxCell>
        <mxCell id="ThvfyFaF6rC_6EWFUeGO-25" value="" style="endArrow=none;html=1;strokeWidth=1;exitX=0.5;exitY=0;exitDx=0;exitDy=0;entryX=0.5;entryY=1;entryDx=0;entryDy=0;" parent="1" source="ThvfyFaF6rC_6EWFUeGO-19" target="ThvfyFaF6rC_6EWFUeGO-21" edge="1">
          <mxGeometry width="50" height="50" relative="1" as="geometry">
            <mxPoint x="434.96000000000004" y="-260" as="sourcePoint" />
            <mxPoint x="474.96000000000004" y="-300" as="targetPoint" />
          </mxGeometry>
        </mxCell>
        <mxCell id="ThvfyFaF6rC_6EWFUeGO-26" value="" style="endArrow=none;html=1;strokeWidth=1;entryX=1;entryY=1;entryDx=0;entryDy=0;exitX=0.25;exitY=0;exitDx=0;exitDy=0;" parent="1" source="ThvfyFaF6rC_6EWFUeGO-19" target="ThvfyFaF6rC_6EWFUeGO-22" edge="1">
          <mxGeometry width="50" height="50" relative="1" as="geometry">
            <mxPoint x="484.96000000000004" y="-230" as="sourcePoint" />
            <mxPoint x="534.96" y="-280" as="targetPoint" />
          </mxGeometry>
        </mxCell>
        <mxCell id="ThvfyFaF6rC_6EWFUeGO-32" value="lives on" style="rhombus;whiteSpace=wrap;html=1;" parent="1" vertex="1">
          <mxGeometry x="425" y="-180" width="80" height="80" as="geometry" />
        </mxCell>
        <mxCell id="ThvfyFaF6rC_6EWFUeGO-34" value="" style="endArrow=none;html=1;strokeWidth=1;exitX=0;exitY=0.25;exitDx=0;exitDy=0;entryX=1;entryY=0.5;entryDx=0;entryDy=0;" parent="1" source="aPKXd2xIz4nXnnE8rZUF-1" target="ThvfyFaF6rC_6EWFUeGO-32" edge="1">
          <mxGeometry width="50" height="50" relative="1" as="geometry">
            <mxPoint x="415" y="-230" as="sourcePoint" />
            <mxPoint x="620" y="-220" as="targetPoint" />
          </mxGeometry>
        </mxCell>
        <mxCell id="sMKQmPsuH0K5iHSBXNyJ-2" value="" style="endArrow=classic;html=1;strokeWidth=5;entryX=0.5;entryY=0;entryDx=0;entryDy=0;exitX=0.5;exitY=1;exitDx=0;exitDy=0;" parent="1" source="ThvfyFaF6rC_6EWFUeGO-19" target="ThvfyFaF6rC_6EWFUeGO-32" edge="1">
          <mxGeometry width="50" height="50" relative="1" as="geometry">
            <mxPoint x="560" y="-270" as="sourcePoint" />
            <mxPoint x="500" y="-230" as="targetPoint" />
          </mxGeometry>
        </mxCell>
        <mxCell id="pGP1XzoacACqaUV3zQPp-1" value="" style="endArrow=none;html=1;strokeWidth=1;exitX=0.5;exitY=0;exitDx=0;exitDy=0;entryX=0.5;entryY=1;entryDx=0;entryDy=0;" parent="1" source="aPKXd2xIz4nXnnE8rZUF-1" target="zEuTv6TQkIkxdn-Qtf5L-5" edge="1">
          <mxGeometry width="50" height="50" relative="1" as="geometry">
            <mxPoint x="720" y="-107.5" as="sourcePoint" />
            <mxPoint x="515" y="-130" as="targetPoint" />
          </mxGeometry>
        </mxCell>
        <mxCell id="Cdx3p9ot9UEux99KzNAL-1" value="" style="endArrow=none;html=1;strokeWidth=1;exitX=0;exitY=0.25;exitDx=0;exitDy=0;entryX=1;entryY=0.5;entryDx=0;entryDy=0;" parent="1" edge="1">
          <mxGeometry width="50" height="50" relative="1" as="geometry">
            <mxPoint x="710" y="-117.5" as="sourcePoint" />
            <mxPoint x="505" y="-140" as="targetPoint" />
          </mxGeometry>
        </mxCell>
        <mxCell id="Cdx3p9ot9UEux99KzNAL-6" value="&lt;meta charset=&quot;utf-8&quot;&gt;&lt;span style=&quot;color: rgb(0, 0, 0); font-family: helvetica; font-size: 12px; font-style: normal; font-weight: 400; letter-spacing: normal; text-align: center; text-indent: 0px; text-transform: none; word-spacing: 0px; background-color: rgb(255, 255, 255); display: inline; float: none;&quot;&gt;Merchant and Peasant are DISJOINT&lt;/span&gt;" style="text;whiteSpace=wrap;html=1;" parent="1" vertex="1">
          <mxGeometry x="-390" y="125" width="210" height="30" as="geometry" />
        </mxCell>
        <mxCell id="Cdx3p9ot9UEux99KzNAL-7" value="&lt;meta charset=&quot;utf-8&quot;&gt;&lt;span style=&quot;color: rgb(0, 0, 0); font-family: helvetica; font-size: 12px; font-style: normal; font-weight: 400; letter-spacing: normal; text-align: center; text-indent: 0px; text-transform: none; word-spacing: 0px; background-color: rgb(255, 255, 255); display: inline; float: none;&quot;&gt;Merchant and Peasant COVER Citizen&lt;/span&gt;" style="text;whiteSpace=wrap;html=1;" parent="1" vertex="1">
          <mxGeometry x="-390" y="95" width="210" height="30" as="geometry" />
        </mxCell>
        <mxCell id="qJn0JVBrjdELswIfsGnx-1" value="Coordinates &lt;br&gt;is a partial key" style="text;html=1;strokeColor=none;fillColor=none;align=center;verticalAlign=middle;whiteSpace=wrap;rounded=0;" parent="1" vertex="1">
          <mxGeometry x="910" y="-425" width="110" height="40" as="geometry" />
        </mxCell>
        <mxCell id="JvP-fE8TcauOXq7hYPfn-1" value="hasReligiousLeader" style="ellipse;whiteSpace=wrap;html=1;" parent="1" vertex="1">
          <mxGeometry x="-50" y="-310" width="120.02" height="57.5" as="geometry" />
        </mxCell>
        <mxCell id="JvP-fE8TcauOXq7hYPfn-2" value="" style="endArrow=none;html=1;entryX=0;entryY=0.5;entryDx=0;entryDy=0;exitX=1;exitY=0.5;exitDx=0;exitDy=0;" parent="1" source="JvP-fE8TcauOXq7hYPfn-1" target="Bpu9ONig5MRV0NCOvyTA-21" edge="1">
          <mxGeometry width="50" height="50" relative="1" as="geometry">
            <mxPoint x="70" y="-140" as="sourcePoint" />
            <mxPoint x="120" y="-190" as="targetPoint" />
          </mxGeometry>
        </mxCell>
        <mxCell id="JvP-fE8TcauOXq7hYPfn-3" value="" style="endArrow=none;html=1;entryX=0.5;entryY=1;entryDx=0;entryDy=0;exitX=0.5;exitY=0;exitDx=0;exitDy=0;" parent="1" source="Cuf-alw472HuKOEhcysz-22" target="4fpd6pDYD6I8LovXb1lp-1" edge="1">
          <mxGeometry width="50" height="50" relative="1" as="geometry">
            <mxPoint x="550" y="290" as="sourcePoint" />
            <mxPoint x="600" y="240" as="targetPoint" />
          </mxGeometry>
        </mxCell>
        <mxCell id="YlhvZn-1UhMftm1oR04U-1" value="Breed" style="ellipse;whiteSpace=wrap;html=1;" parent="1" vertex="1">
          <mxGeometry x="305" y="-390" width="80" height="50" as="geometry" />
        </mxCell>
        <mxCell id="YlhvZn-1UhMftm1oR04U-3" value="" style="endArrow=none;html=1;entryX=0.963;entryY=0.68;entryDx=0;entryDy=0;entryPerimeter=0;exitX=0;exitY=0.5;exitDx=0;exitDy=0;" parent="1" source="ThvfyFaF6rC_6EWFUeGO-19" target="YlhvZn-1UhMftm1oR04U-1" edge="1">
          <mxGeometry width="50" height="50" relative="1" as="geometry">
            <mxPoint x="310" y="-140" as="sourcePoint" />
            <mxPoint x="360" y="-190" as="targetPoint" />
          </mxGeometry>
        </mxCell>
        <mxCell id="tCXgZh7KCjQvNEQFZgz4-2" value="" style="endArrow=none;html=1;exitX=0.5;exitY=0;exitDx=0;exitDy=0;entryX=0;entryY=0.5;entryDx=0;entryDy=0;" parent="1" source="BoH4BKWZVbaYCitKoHm3-5" target="Bpu9ONig5MRV0NCOvyTA-3" edge="1">
          <mxGeometry width="50" height="50" relative="1" as="geometry">
            <mxPoint x="-1.5807226140946113" y="-87.77746969916143" as="sourcePoint" />
            <mxPoint x="230" y="20" as="targetPoint" />
          </mxGeometry>
        </mxCell>
        <mxCell id="BoH4BKWZVbaYCitKoHm3-2" value="Date&amp;nbsp;&lt;br&gt;is a partial key" style="text;html=1;strokeColor=none;fillColor=none;align=center;verticalAlign=middle;whiteSpace=wrap;rounded=0;" vertex="1" parent="1">
          <mxGeometry x="10" y="-240" width="110" height="40" as="geometry" />
        </mxCell>
        <mxCell id="BoH4BKWZVbaYCitKoHm3-3" value="Date&lt;br&gt;is a partial key" style="text;html=1;strokeColor=none;fillColor=none;align=center;verticalAlign=middle;whiteSpace=wrap;rounded=0;" vertex="1" parent="1">
          <mxGeometry x="317.5" y="375" width="110" height="40" as="geometry" />
        </mxCell>
        <mxCell id="BoH4BKWZVbaYCitKoHm3-4" value="" style="endArrow=classic;html=1;strokeWidth=5;exitX=1;exitY=0.5;exitDx=0;exitDy=0;entryX=0;entryY=0.5;entryDx=0;entryDy=0;" edge="1" parent="1" source="Bpu9ONig5MRV0NCOvyTA-1" target="Bpu9ONig5MRV0NCOvyTA-5">
          <mxGeometry width="50" height="50" relative="1" as="geometry">
            <mxPoint x="780" y="-62.5" as="sourcePoint" />
            <mxPoint x="780" y="20" as="targetPoint" />
            <Array as="points" />
          </mxGeometry>
        </mxCell>
        <mxCell id="BoH4BKWZVbaYCitKoHm3-5" value="Rank" style="ellipse;whiteSpace=wrap;html=1;direction=south;" vertex="1" parent="1">
          <mxGeometry x="15" y="158.75" width="80" height="52.5" as="geometry" />
        </mxCell>
      </root>
    </mxGraphModel>
  </diagram>
</mxfile>
